<svg t="1696771934618" class="icon" viewBox="0 0 1024 1024" version="1.1" xmlns="http://www.w3.org/2000/svg" p-id="955" width="48" height="48"><path d="M102.4 97.28m307.2 0l204.8 0q307.2 0 307.2 307.2l0 204.8q0 307.2-307.2 307.2l-204.8 0q-307.2 0-307.2-307.2l0-204.8q0-307.2 307.2-307.2Z" fill="#D57875" p-id="956"></path><path d="M917.3504 353.28H819.2c-84.83328 0-153.6-68.76672-153.6-153.6V101.5296c128.64 21.5808 230.1696 123.1104 251.7504 251.7504z" fill="#BC5E5B" p-id="957"></path><path d="M425.82016 706.56l-3.31776-3.6864h27.46368v85.15584H324.07552v-51.6096l-2.94912-3.6864h104.69376V706.56z m-77.78304 68.75136h77.78304v-29.85984H348.03712v29.85984zM460.84096 736.23552l-3.50208-3.6864h133.26336v55.296H460.84096v-51.6096z m23.9616 9.216v29.67552h81.83808v-29.67552H484.80256zM601.2928 736.0512l-3.31776-3.50208h123.86304v16.5888c-0.49152-1.59744-1.44384-2.64192-2.85696-3.13344a11.6736 11.6736 0 0 0-3.77856-0.73728h-89.76384v29.85984h96.39936v16.40448a4.1728 4.1728 0 0 0-2.85696-2.85696 13.1584 13.1584 0 0 0-3.77856-0.64512H601.2928V736.0512z" fill="#FFFFFF" p-id="958"></path><path d="M332.8 276.48h281.6a25.6 25.6 0 1 1 0 51.2H332.8a25.6 25.6 0 0 1 0-51.2z m15.36 102.4h66.56a40.96 40.96 0 0 1 40.96 40.96v71.68a40.96 40.96 0 0 1-40.96 40.96H348.16a40.96 40.96 0 0 1-40.96-40.96V419.84a40.96 40.96 0 0 1 40.96-40.96z m168.96 0h174.08a25.6 25.6 0 1 1 0 51.2H517.12a25.6 25.6 0 0 1 0-51.2z m0 102.4h174.08a25.6 25.6 0 1 1 0 51.2H517.12a25.6 25.6 0 0 1 0-51.2zM332.8 583.68h358.4a25.6 25.6 0 1 1 0 51.2H332.8a25.6 25.6 0 1 1 0-51.2z" fill="#FFFFFF" p-id="959"></path></svg>